<?xml version="1.0" encoding="UTF-8"?>
<svg xmlns="http://www.w3.org/2000/svg" xmlns:xlink="http://www.w3.org/1999/xlink" width="200px" height="200px" viewBox="0 0 200 200" version="1.1">
<g id="surface1">
<rect x="0" y="0" width="200" height="200" style="fill:rgb(100%,100%,100%);fill-opacity:1;stroke:none;"/>
<path style=" stroke:none;fill-rule:nonzero;fill:rgb(100%,100%,100%);fill-opacity:1;" d="M 76.378906 86.257812 L 76.378906 142.917969 L 68 142.917969 L 68 86.257812 L 87.269531 86.257812 L 87.269531 123.644531 L 103.191406 123.644531 L 103.191406 67.339844 L 126.371094 67.339844 L 126.371094 142.917969 L 117.996094 142.917969 L 117.996094 86.257812 L 126.371094 86.257812 L 126.371094 67.339844 L 103.191406 67.339844 L 103.191406 123.644531 L 87.269531 123.644531 L 87.269531 86.257812 Z M 76.378906 86.257812 "/>
<path style=" stroke:none;fill-rule:nonzero;fill:rgb(100%,100%,100%);fill-opacity:1;" d="M 153.746094 47.921875 C 145.984375 47.921875 144.09375 54.097656 144.25 57.878906 C 144.25 60.238281 146.574219 67.339844 153.746094 67.339844 C 161.191406 67.339844 163.273438 61.164062 163.429688 57.878906 C 163.429688 54.496094 161.378906 47.921875 153.746094 47.921875 Z M 153.746094 47.921875 "/>
<path style="fill:none;stroke-width:15;stroke-linecap:butt;stroke-linejoin:miter;stroke:rgb(14.117648%,31.37255%,30.980393%);stroke-opacity:1;stroke-miterlimit:4;" d="M 321.017963 1086.217745 L 463.791524 1086.217745 L 463.791524 591.580647 L 669.460775 591.580647 L 669.460775 1255.535037 L 596.019699 1255.535037 L 596.019699 757.775143 L 764.917055 757.775143 L 764.917055 1086.217745 L 904.472219 1086.217745 L 904.472219 591.580647 L 1107.642077 591.580647 L 1107.642077 1255.535037 L 1034.235239 1255.535037 L 1034.235239 757.775143 L 1221.895164 757.775143 L 1221.895164 1336.007078 L 1306.77182 1336.007078 M 1264.350611 508.466241 C 1262.981081 475.247932 1279.552401 420.993648 1347.583831 420.993648 C 1414.485399 420.993648 1432.460487 478.748208 1432.460487 508.466241 C 1431.090957 537.326363 1412.841962 591.580647 1347.583831 591.580647 C 1284.756617 591.580647 1264.350611 529.193368 1264.350611 508.466241 Z M 1264.350611 508.466241 " transform="matrix(0.11409,0,0,0.11383,-0.000000000000012971,0.0000432815)"/>
</g>
</svg>
